<?xml version="1.0" standalone="no"?>
<!DOCTYPE svg PUBLIC "-//W3C//DTD SVG 20010904//EN"
 "http://www.w3.org/TR/2001/REC-SVG-20010904/DTD/svg10.dtd">
<svg version="1.0" xmlns="http://www.w3.org/2000/svg"
 width="32.000000pt" height="32.000000pt" viewBox="0 0 32.000000 32.000000"
 preserveAspectRatio="xMidYMid meet">

<g transform="translate(0.000000,32.000000) scale(0.100000,-0.100000)"
fill="#000000" stroke="none">
<path d="M188 300 c-30 -23 -37 -50 -15 -50 20 0 49 36 45 55 -3 15 -6 14 -30
-5z"/>
<path d="M68 229 c-25 -14 -41 -65 -34 -109 6 -37 41 -109 54 -111 4 0 40 -2
81 -3 l73 -3 26 39 25 39 -21 20 c-26 24 -28 65 -5 91 28 31 3 43 -95 44 -49
1 -95 -2 -104 -7z"/>
</g>
</svg>
