<?xml version="1.0" standalone="no"?>
<!DOCTYPE svg PUBLIC "-//W3C//DTD SVG 20010904//EN"
 "http://www.w3.org/TR/2001/REC-SVG-20010904/DTD/svg10.dtd">
<svg version="1.0" xmlns="http://www.w3.org/2000/svg"
 width="512.000000pt" height="512.000000pt" viewBox="0 0 512.000000 512.000000"
 preserveAspectRatio="xMidYMid meet">

<g transform="translate(0.000000,512.000000) scale(0.100000,-0.100000)"
fill="#000000" stroke="none">
<path d="M0 2560 l0 -2560 2560 0 2560 0 0 2560 0 2560 -2560 0 -2560 0 0
-2560z m2615 1775 c324 -57 589 -193 829 -425 201 -194 324 -392 409 -655 146
-456 78 -942 -190 -1354 l-54 -84 354 -356 c195 -196 362 -370 371 -387 54
-108 14 -232 -94 -287 -46 -24 -64 -28 -106 -24 -29 3 -67 13 -85 22 -19 10
-194 177 -390 372 l-356 354 -87 -56 c-179 -117 -399 -205 -601 -241 -148 -27
-414 -25 -560 4 -926 183 -1490 1099 -1230 1997 76 261 201 474 393 669 269
273 580 421 992 470 69 8 317 -3 405 -19z"/>
<path d="M2180 3924 c-219 -41 -388 -113 -540 -229 -78 -60 -208 -198 -258
-275 -88 -134 -157 -308 -182 -463 -13 -80 -13 -284 0 -364 38 -232 142 -442
305 -612 165 -172 334 -272 565 -333 98 -25 335 -35 451 -18 232 33 444 138
618 305 176 169 281 350 338 587 14 57 18 115 18 258 0 171 -2 193 -28 284
-61 221 -163 393 -325 547 -152 145 -314 236 -519 290 -61 17 -114 22 -248 24
-93 2 -181 1 -195 -1z"/>
</g>
</svg>
